# xmcd
#
# Track frame offsets:
#	150
#	17448
#	35946
#	53394
#	70767
#	90540
#	106638
#	122886
#	144384
#	158532
#	172755
#
# Disc length: 2647 seconds
# Revision: 0
# Processed by: cddbd v1.5.2PL0 Copyright (c) Steve Scherf et al.
# Submitted via: dBpowerAMP V12.0
#
DISCID=7a0a550b
DTITLE=Delegation - II
DYEAR=1981
DGENRE=R&B
TTITLE0=Feels So Good (Loving You So Bad)
TTITLE1=Dance, Prance, Boogie
TTITLE2=In Love's Time
TTITLE3=Singing
TTITLE4=12th House
TTITLE5=In The Night
TTITLE6=Turn On To City Life
TTITLE7=Free To Be Me
TTITLE8=I Wantcha Back
TTITLE9=Gonna Keep My Eyes On You
TTITLE10=Oh Honey
EXTD=
EXTT0=
EXTT1=
EXTT2=
EXTT3=
EXTT4=
EXTT5=
EXTT6=
EXTT7=
EXTT8=
EXTT9=
EXTT10=
PLAYORDER=
